<?xml version="1.0" encoding="UTF-8"?>
<svg width="304px" height="309px" viewBox="0 0 304 309" version="1.1" xmlns="http://www.w3.org/2000/svg" xmlns:xlink="http://www.w3.org/1999/xlink">
    <title>kevin-cover</title>
    <g id="Mobile" stroke="none" stroke-width="1" fill="none" fill-rule="evenodd">
        <g id="kevin-cover" transform="translate(0.000000, 0.500000)" fill-rule="nonzero">
            <g id="circle" transform="translate(21.000000, 123.000000)">
                <ellipse id="Oval" fill="#FD0000" cx="91.4064516" cy="93.0929487" rx="91.4064516" ry="91.9070513"></ellipse>
                <path d="M91.9964454,185 C67.4235376,185 44.3186771,175.379028 26.943822,157.90617 C9.56896685,140.436887 0,117.206456 0,92.5 C0,67.7935438 9.56896685,44.5631134 26.9473766,27.0938297 C44.3257863,9.62454602 67.4270922,0 92,0 C116.572908,0 139.677768,9.6209721 157.052623,27.0938297 C174.427479,44.5631134 184,67.7935438 184,92.5 C184,117.206456 174.431033,140.436887 157.052623,157.90617 C139.674214,175.375454 116.572908,185 91.9964454,185 Z M91.9964454,1.07217371 C67.7079051,1.07217371 44.8731937,10.5823545 27.6973959,27.8514991 C10.521598,45.1206437 1.06637818,68.0794568 1.06637818,92.5 C1.06637818,116.920543 10.5251526,139.879356 27.7009505,157.148501 C44.8767483,174.417645 67.7114597,183.927826 92,183.927826 C116.28854,183.927826 139.123252,174.417645 156.29905,157.148501 C173.474847,139.879356 182.933622,116.920543 182.933622,92.5 C182.933622,68.0794568 173.474847,45.1206437 156.29905,27.8514991 C139.123252,10.5823545 116.284986,1.07217371 91.9964454,1.07217371 Z" id="Shape" fill="#000000"></path>
            </g>
            <g id="star" transform="translate(109.000000, 0.000000)">
                <polygon id="Path" fill="#FFFFFF" points="97.7133276 1.35640138 112.374972 39.8818139 143.041212 12.6701266 138.340881 53.6807301 177.984037 44.0138979 154.997395 78.1167923 194.536244 88.2093745 158.534052 107.589244 188.910189 135.13097 148.132695 135.352096 162.390149 174.032627 126.185863 155.038902 121.055265 196 97.7133276 162.144635 74.3713903 196 69.2407927 155.038902 33.0365059 174.032627 47.2939607 135.352096 6.51646651 135.13097 36.8958627 107.589244 0.890410959 88.2093745 40.4292602 78.1167923 17.4426184 44.0138979 57.0857747 53.6807301 52.3854432 12.6701266 83.0516834 39.8818139"></polygon>
                <path d="M120.886301,196 C120.729543,196 120.576051,195.922573 120.484609,195.787005 L97.5,162.453748 L74.5153911,195.787005 C74.4010886,195.955638 74.195344,196.034995 73.996131,195.985397 C73.8001838,195.935799 73.6532234,195.770472 73.6270971,195.565466 L68.5781904,155.232259 L32.9255937,173.934064 C32.7459754,174.026647 32.5271677,174.000195 32.3736757,173.864627 C32.2234495,173.729059 32.1679311,173.510827 32.2397785,173.319047 L46.2793968,135.230982 L6.12654564,135.016057 C5.92406685,135.016057 5.74444856,134.887102 5.67260125,134.695322 C5.60075394,134.503543 5.65300653,134.285311 5.80323273,134.149743 L35.7145758,107.02948 L0.261192199,87.947422 C0.0815739138,87.8515323 -0.0196654831,87.6531397 0.00319502587,87.4514406 C0.0293213218,87.246435 0.17301595,87.0811078 0.368963169,87.0315097 L39.3036757,77.0920424 L16.6717719,43.5141016 C16.5574693,43.3454679 16.5574693,43.120623 16.6717719,42.9519893 C16.7860744,42.7833556 16.991819,42.7039986 17.191032,42.7502902 L56.2269839,52.2698266 L51.5993638,11.8870209 C51.5765033,11.6820153 51.6777427,11.4869292 51.8573609,11.3910395 C52.0369792,11.2951498 52.255787,11.3216021 52.4092789,11.4571704 L82.6047455,38.2533922 L97.0427898,0.317428097 C97.1146371,0.125648622 97.2975212,0 97.5,0 C97.7024788,0 97.8853629,0.125648622 97.9572102,0.317428097 L112.395254,38.2533922 L142.590721,11.4571704 C142.744213,11.3216021 142.963021,11.2951498 143.142639,11.3910395 C143.322257,11.4869292 143.423497,11.6820153 143.400636,11.8870209 L138.773016,52.2698266 L177.808968,42.7502902 C178.008181,42.7039986 178.21066,42.7833556 178.328228,42.9519893 C178.445796,43.120623 178.442531,43.3454679 178.328228,43.5141016 L155.696324,77.0920424 L194.631037,87.0315097 C194.826984,87.0811078 194.973944,87.2497415 194.996805,87.4514406 C195.019665,87.6564463 194.918426,87.8515323 194.738808,87.947422 L159.285424,107.02948 L189.196767,134.149743 C189.346993,134.285311 189.399246,134.503543 189.327399,134.695322 C189.255551,134.887102 189.075933,135.01275 188.873454,135.016057 L148.720603,135.230982 L162.760222,173.319047 C162.832069,173.510827 162.77655,173.729059 162.626324,173.864627 C162.472832,174.000195 162.25729,174.026647 162.074406,173.934064 L126.42181,155.232259 L121.369637,195.56216 C121.343511,195.767166 121.19655,195.932493 121.000603,195.982091 C120.96468,195.99201 120.92549,196 120.886301,196 Z M97.5,161.088146 C97.6600236,161.088146 97.8102498,161.167503 97.9016918,161.299765 L120.559722,194.160186 L125.540047,154.402317 C125.559642,154.240296 125.657615,154.101421 125.798044,154.025371 C125.941739,153.94932 126.108294,153.94932 126.251989,154.025371 L161.398388,172.459346 L147.557983,134.913554 C147.502465,134.761453 147.522059,134.59282 147.613501,134.457251 C147.704943,134.321683 147.85517,134.242326 148.015193,134.242326 L187.596532,134.030707 L158.106475,107.29731 C157.985641,107.188194 157.926857,107.02948 157.946452,106.867459 C157.966046,106.705439 158.060754,106.566564 158.204449,106.490513 L193.154901,87.6762855 L154.772107,77.8789996 C154.615349,77.8393211 154.491249,77.7268986 154.432465,77.5747977 C154.376946,77.4226967 154.396541,77.254063 154.484717,77.1184948 L176.796574,44.0166961 L138.315806,53.4006642 C138.162314,53.4370361 137.995759,53.3973576 137.874925,53.2882417 C137.754091,53.1824324 137.695306,53.0204118 137.711635,52.8583912 L142.27394,13.0476174 L112.506291,39.4635868 C112.385457,39.5693962 112.222168,39.6123812 112.06541,39.5727027 C111.908652,39.5330242 111.784552,39.4206018 111.725768,39.2685008 L97.4934684,1.87150315 L83.2611687,39.2685008 C83.2023845,39.4206018 83.0782846,39.5330242 82.9215269,39.5727027 C82.7647691,39.6123812 82.6014797,39.5727027 82.4806456,39.4635868 L52.7129971,13.0476174 L57.2753016,52.8583912 C57.2948963,53.0204118 57.2328463,53.1791258 57.1120122,53.2882417 C56.9911781,53.3973576 56.8278888,53.4370361 56.671131,53.4006642 L18.1903628,44.0166961 L40.5022196,77.1184948 C40.5936616,77.254063 40.6132563,77.4226967 40.5544722,77.5747977 C40.4989538,77.7268986 40.3715881,77.8393211 40.2148303,77.8789996 L1.84509889,87.6762855 L36.7955513,106.490513 C36.9359802,106.566564 37.0339538,106.708745 37.0535485,106.867459 C37.0731432,107.02948 37.014359,107.188194 36.8935249,107.29731 L7.40673415,134.030707 L46.9880725,134.242326 C47.1480961,134.242326 47.2983223,134.321683 47.3897643,134.457251 C47.4812064,134.59282 47.5008011,134.761453 47.4452827,134.913554 L33.6016116,172.462653 L68.7480113,154.028677 C68.8917059,153.952627 69.0582611,153.955933 69.2019557,154.028677 C69.3423845,154.104728 69.4403581,154.243603 69.4599529,154.405623 L74.440278,194.163492 L97.0983082,161.303071 C97.1897502,161.167503 97.3399764,161.088146 97.5,161.088146 Z" id="Shape" fill="#000000"></path>
            </g>
            <g id="kevin" transform="translate(0.000000, 128.000000)">
                <g id="Group" transform="translate(0.979131, 0.000000)">
                    <g>
                        <g transform="translate(0.553077, 13.236950)" id="Combined-Shape">
                            <path d="M13.2151562,9.1195033 C23.2969821,0.85570033 44.6360134,-7.64747782 67.9256744,16.4329511 C94.3127638,43.7181492 63.5849875,105.66273 64.4459797,119.70012 C65.3069719,133.737509 84.7382445,142.930231 84.7382445,142.930231 L84.7382445,142.930231 L82.8947923,153.305537 C82.8947923,153.305537 78.1237365,155.777688 71.1441424,156.440782 C56.3332658,149.184011 43.7579731,138.046135 34.7299672,124.347744 C35.1501979,111.986228 41.5971605,99.6810059 42.2531013,90.925079 C43.3105855,76.8126615 15.3622778,73.5757374 4.89818564,55.9941661 C-3.81176888,41.3636978 3.13333021,17.3833063 13.2151562,9.1195033 Z" fill="#FFFFFF"></path>
                            <path d="M68.3079407,16.0649564 C87.6713342,36.0867254 76.7642419,74.0580605 69.5511991,99.1853092 C66.8681902,108.53166 64.7496492,115.909417 64.9782944,119.667965 C65.810706,133.223031 84.7739703,142.355016 84.9668898,142.444335 C85.1848173,142.547945 85.306285,142.783747 85.2669866,143.023123 L83.427107,153.405575 C83.3985263,153.569922 83.2949215,153.712832 83.144873,153.78786 C82.946373,153.891997 78.5804796,156.11847 72.0666249,156.887196 C71.4436384,156.593008 70.8256444,156.290008 70.2115883,155.9803 L69.979909,155.995828 C76.4784353,155.581388 81.3192837,153.462739 82.4160663,152.944688 L84.1380508,143.22677 C82.9019375,142.601536 78.7505974,140.397141 74.5742492,136.988724 C67.9578276,131.590278 64.2709232,125.62019 63.9100924,119.728702 C63.6671569,115.78437 65.810706,108.328012 68.5222956,98.8816243 C75.6710318,73.990178 86.4709467,36.3761193 67.5398356,16.8009457 C57.5080258,6.43993035 46.9510464,1.18082185 36.147559,1.18082185 C35.9725025,1.18082185 35.8010185,1.18082185 35.625962,1.18439461 C25.0868456,1.34874175 17.2736091,6.48637628 13.5545514,9.53751668 C8.64582399,13.5604489 4.42303226,21.5098486 2.53313647,30.2845568 C0.453893837,39.9417377 1.48279741,49.2130601 5.3590487,55.722636 C10.1963245,63.8506739 18.9312871,68.9275715 26.6373461,73.4078174 C35.6188169,78.6311983 43.374892,83.1400264 42.7889886,90.9679522 C42.4960369,94.8551193 41.0777219,99.446121 39.5736649,104.308653 C37.5898278,110.721849 35.3451123,117.984705 35.2489064,125.123611 C34.9061413,124.617723 34.5688887,124.106204 34.236617,123.591147 C34.5952241,116.782329 36.678772,110.04635 38.5519065,103.994249 C40.0381006,99.1924547 41.4385527,94.6550445 41.7207866,90.8893514 C42.2566739,83.7295324 34.7685424,79.377906 26.0978863,74.3367361 C18.2775046,69.7921804 9.41750167,64.6402548 4.43732258,56.2728416 C0.364579291,49.4345715 -0.682187187,40.1239487 1.48636999,30.0594727 C3.42628193,21.0596804 7.78840435,12.878051 12.8757609,8.70863545 C16.701996,5.57174872 24.7438777,0.284058101 35.6080991,0.116138196 C46.8938851,-0.0767910557 57.9045824,5.30736419 68.3079407,16.0649564 Z" fill="#000000"></path>
                            <path d="M56.053985,76.9877269 C61.7022368,86.5591615 62.3881726,96.4735814 60.7054865,105.969988 C64.6603346,100.110655 68.604465,94.2477495 72.0591516,88.2990975 C68.193618,102.572289 64.1244473,114.469593 64.4459797,119.703692 C65.3069719,133.737509 84.7382445,142.930231 84.7382445,142.930231 L84.7382445,142.930231 L82.8983649,153.312683 C82.8983649,153.312683 78.1311612,155.782837 71.1561684,156.447124 C56.3397026,149.189854 43.7598028,138.049297 34.7293108,124.346748 C35.1141514,113.031938 40.5466948,101.764927 41.9637222,93.225939 C44.9504006,97.4060728 47.0046352,102.286468 48.2050227,107.424103 C51.2881608,96.9523317 55.3466138,87.8810841 56.053985,76.9877269 Z" fill="#000000"></path>
                        </g>
                        <g transform="translate(83.565764, 21.034531)">
                            <path d="M58.8439954,28.4249098 C58.8439954,28.4249098 35.1291972,16.7312535 28.5842273,15.1020731 C22.0392573,13.46932 19.9171437,14.5054216 14.2367386,14.5518675 C7.19160724,14.6090317 4.56218701,13.8051598 2.69729929,11.5114454 C0.496588875,8.80329032 0.564238766,6.31307386 0.564238766,6.31307386 C0.564238766,6.31307386 7.64889771,0.332267045 12.5826332,0.643097507 C17.5127962,0.953927969 30.2990666,2.56167174 39.8592956,11.0362678 C49.4195245,19.5108638 58.8439954,28.4249098 58.8439954,28.4249098 Z" id="Path" fill="#FFFFFF"></path>
                            <path d="M58.8439954,28.9608244 C58.7653986,28.9608244 58.6832292,28.9429606 58.608205,28.907233 C58.3724146,28.7893317 34.8719713,17.2207221 28.4556143,15.6236967 C23.922008,14.4947033 21.5605314,14.6661959 18.573853,14.8841345 C17.3377397,14.9734536 15.933715,15.0770638 14.2438838,15.0913548 C7.23090564,15.1485191 4.32282402,14.362511 2.28645238,11.8544307 C-0.0107177455,9.02480169 0.0285806547,6.41311125 0.0316333903,6.30235557 C0.0357258184,6.14872672 0.107177455,6.00581617 0.221500074,5.90577878 C0.518024366,5.6556853 7.53814768,-0.203647544 12.618359,0.107182918 C17.7057156,0.425158908 30.5777279,2.0900669 40.2165537,10.6361182 C49.6731779,19.0213952 59.1190842,27.9497322 59.2155439,28.0390513 C59.4084634,28.2212623 59.437044,28.5178017 59.2869956,28.7357403 C59.1798181,28.8786508 59.0154794,28.9608244 58.8439954,28.9608244 Z M21.8963541,13.6479582 C23.7612418,13.6479582 25.8047586,13.8551785 28.7164128,14.5804496 C33.8609306,15.8630718 49.1730164,23.1336464 55.8894703,26.3884344 C52.4276385,23.155083 45.9684105,17.1671307 39.5020374,11.4364173 C30.1132923,3.11187738 17.5235139,1.48626979 12.5469074,1.17543933 C8.33840601,0.914627566 2.28287979,5.60923937 1.11107295,6.55602181 C1.1610891,7.20269208 1.45404081,9.12841184 3.11529136,11.1720328 C4.68365479,13.1048981 6.83077647,14.0766899 14.233166,14.0123801 C15.8872714,13.9980891 17.2126993,13.9016245 18.4952562,13.8087326 C19.6706356,13.726559 20.7495553,13.6479582 21.8963541,13.6479582 Z" id="Shape" fill="#000000"></path>
                        </g>
                        <g transform="translate(152.516594, 29.251888)">
                            <path d="M24.5150566,5.94865194 C24.5150566,5.94865194 19.402692,-1.28262225 10.3640599,1.32906818 C3.26891238,3.37983468 0.775250259,5.94865194 0.775250259,5.94865194 L14.5797065,18.221096 L24.5150566,5.94865194 Z" id="Path" fill="#FFFFFF"></path>
                            <path d="M14.5797065,18.7570106 C14.4475209,18.7570106 14.3224806,18.7105647 14.2224483,18.6212456 L0.414419493,6.34522874 C0.303669456,6.24876411 0.239362983,6.10942632 0.235622608,5.962943 C0.232217819,5.81645968 0.285806547,5.67354912 0.385838838,5.56993897 C0.493016293,5.45918328 3.06170263,2.8725022 10.2104389,0.807444648 C19.5062968,-1.87927383 24.8937502,5.55922067 24.947339,5.63424872 C25.0866697,5.83075073 25.0759519,6.09513526 24.9259035,6.28091899 L14.994126,18.5569359 C14.9012388,18.6712643 14.7690533,18.7427196 14.6225775,18.7534379 C14.6118597,18.7570106 14.5939968,18.7570106 14.5797065,18.7570106 Z M1.58622634,5.95222471 L14.5154,17.449379 L23.8291209,5.94150641 C22.7323382,4.59457441 18.0915544,-0.346558101 10.5069632,1.84354619 C5.24455014,3.36197086 2.55439601,5.18408046 1.58622634,5.95222471 Z" id="Shape" fill="#000000"></path>
                        </g>
                        <g transform="translate(160.376274, 33.181928)" fill="#000000" id="Path">
                            <path d="M10.7534713,20.1360975 C10.7534713,20.1360975 21.3711845,6.33093768 16.6518039,2.01861162 C10.935673,-3.20476924 0.610911494,7.53853189 0.610911494,7.53853189 L10.7534713,20.1360975 Z"></path>
                        </g>
                        <g transform="translate(47.095752, 28.601905)" id="Combined-Shape">
                            <path d="M80.0590837,0.932230775 C131.886528,0.932230775 136.377264,61.0511294 136.377264,61.0511294 C136.377264,61.0511294 141.729805,86.4300433 138.425507,113.432386 C121.668181,135.868014 94.9578834,150.383689 64.8691359,150.383689 C40.4806103,150.383689 18.3117137,140.846945 1.86356481,125.286875 C1.57421712,123.565281 1.32363626,121.790809 1.11217023,119.962434 C-2.23891153,91.0016094 21.4687415,60.5973884 21.4687415,60.5973884 C21.4687415,60.5973884 28.231639,0.932230775 80.0590837,0.932230775 Z" fill="#FFFFFF"></path>
                            <path d="M80.0590837,0.396316186 C91.9986522,0.396316186 102.419873,3.59036714 111.040513,9.89272271 C117.928451,14.9303199 123.680308,21.9472282 128.131745,30.7505185 C135.512699,45.3452592 136.838127,60.1365019 136.909578,60.9761014 C137.081062,61.8049826 140.160628,77.0821212 140.035588,96.0606432 C139.997849,101.802558 139.674462,107.314857 139.069973,112.559799 C138.64391,113.145448 138.210934,113.725087 137.771371,114.299383 C138.490328,108.79195 138.919399,102.725627 138.963813,96.0499249 C139.092426,76.7427086 135.884247,61.3119412 135.852094,61.1583123 C135.848522,61.133303 135.844949,61.1118664 135.841376,61.0868571 C135.830659,60.936801 134.633844,45.9633473 127.160003,31.2006868 C122.78359,22.5581708 117.142483,15.6734547 110.390303,10.7430405 C101.962583,4.59074104 91.7592892,1.46814536 80.0590837,1.46814536 C68.351733,1.46814536 58.0162537,4.57287722 49.3491702,10.6930218 C42.4076437,15.5948539 36.5021659,22.4331241 31.8006482,31.0220486 C23.7766294,45.6775262 22.0189191,60.5080693 22.0046288,60.6581254 C21.9939111,60.75459 21.9546127,60.8510546 21.8938788,60.9260827 C21.6580884,61.2297676 -1.63871778,91.4946509 1.64448493,119.898124 C1.8825523,121.95551 2.17031559,123.951981 2.50818861,125.888324 C2.07302644,125.487012 1.64273777,125.079898 1.21639597,124.668693 C0.975185726,123.154636 0.762941443,121.606625 0.579855541,120.023171 C-0.384741555,111.695058 0.390508704,97.8470251 9.55418111,79.1829064 C14.6522554,68.7968816 20.1826121,61.4012603 20.9578623,60.3865953 C21.1650721,58.7752788 23.1692905,44.5485328 30.8610592,30.5075706 C35.6447463,21.7757355 41.6574015,14.8124186 48.7311135,9.81769467 C57.5839713,3.56535779 68.1266603,0.396316186 80.0590837,0.396316186 Z" fill="#000000"></path>
                            <path d="M51.153324,98.2043015 C62.5498601,89.7654331 75.314695,91.2731395 75.314695,91.2731395 C96.1035487,93.384643 101.830397,109.826503 103.338027,118.997788 C103.985477,122.945745 103.563114,133.434067 99.7033524,143.523505 C88.9610847,147.946279 77.1987577,150.383689 64.8691359,150.383689 C56.2965637,150.383689 47.998232,149.205402 40.1261898,147.001409 C34.7197736,128.965665 43.5557735,103.83011 51.153324,98.2043015 Z" fill="#000000"></path>
                        </g>
                        <g transform="translate(67.846404, 52.474853)" fill="#000000" id="Path">
                            <path d="M86.2528433,2.04719373 C86.2528433,2.04719373 86.2528433,2.04719373 86.2528433,2.04719373 C86.2528433,2.04719373 86.2421255,2.04719373 86.238553,2.04719373 C85.6812302,2.03290268 85.3632704,2.04719373 85.3632704,2.04719373 L85.366843,2.08649413 C81.8728579,2.31515103 68.8186439,3.9621952 62.2986821,15.8737901 C54.1174697,1.88641935 38.2516337,0.91820033 36.0294878,0.850317815 L36.0294878,0.843172287 C36.0294878,0.843172287 8.55990608,-1.604171 0.793113168,35.1595698 C19.974305,68.66495 47.6439514,54.4167674 47.6439514,54.4167674 L57.2792046,47.8929005 C57.2792046,47.8929005 61.3733834,53.3056378 74.8634524,55.6100706 C97.78871,59.5258198 115.833821,47.8929005 113.765296,24.3591045 C108.502883,3.79784806 90.4577721,2.15080389 86.2528433,2.04719373 Z"></path>
                        </g>
                        <g transform="translate(134.653684, 69.981397)">
                            <g>
                                <g>
                                    <g transform="translate(2.500807, 2.500935)" fill="#FFFFFF" id="Path">
                                        <path d="M24.8294438,12.379627 C24.8294438,18.8534753 19.3955468,24.0982927 12.6933833,24.0982927 C5.99121974,24.0982927 0.557322767,18.8499025 0.557322767,12.379627 C0.557322767,5.90577878 5.99121974,0.660959504 12.6933833,0.660959504 C19.3955468,0.657388563 24.8294438,5.90577878 24.8294438,12.379627 Z"></path>
                                    </g>
                                    <g id="Shape">
                                        <path d="M15.1941906,29.0072703 C7.17374433,29.0072703 0.650209894,22.6691871 0.650209894,14.876989 C0.650209894,7.08479087 7.17374433,0.746707661 15.1941906,0.746707661 C23.2146368,0.746707661 29.7381712,7.08479087 29.7381712,14.876989 C29.7381712,22.6691871 23.2146368,29.0072703 15.1941906,29.0072703 Z M15.1941906,5.56993897 C9.83174521,5.56993897 5.46962279,9.7465 5.46962279,14.8805618 C5.46962279,20.0146235 9.83174521,24.1876118 15.1941906,24.1876118 C20.5566359,24.1876118 24.9187583,20.0110508 24.9187583,14.8805618 C24.9187583,9.7465 20.5566359,5.56993897 15.1941906,5.56993897 Z" fill="#FFFFFF"></path>
                                        <path d="M15.1941906,29.5431849 C6.87722004,29.5431849 0.114322619,22.9657265 0.114322619,14.876989 C0.114322619,6.78825147 6.88079262,0.210793072 15.1941906,0.210793072 C23.5111611,0.210793072 30.2740585,6.79182423 30.2740585,14.876989 C30.2740585,22.9621538 23.5111611,29.5431849 15.1941906,29.5431849 Z M15.1941906,1.28619501 C7.47026862,1.28619501 1.18609717,7.38490304 1.18609717,14.8805618 C1.18609717,22.3762205 7.47026862,28.4749285 15.1941906,28.4749285 C22.9181125,28.4749285 29.2022839,22.3762205 29.2022839,14.8805618 C29.2022839,7.38133028 22.9181125,1.28619501 15.1941906,1.28619501 Z M15.1941906,24.7235264 C9.53522092,24.7235264 4.93373552,20.3075902 4.93373552,14.8805618 C4.93373552,9.45353336 9.53522092,5.03402438 15.1941906,5.03402438 C20.8531602,5.03402438 25.4546456,9.44996059 25.4546456,14.8805618 C25.4546456,20.3075902 20.8531602,24.7235264 15.1941906,24.7235264 Z M15.1941906,6.10585356 C10.1282695,6.10585356 6.00551007,10.0430394 6.00551007,14.8805618 C6.00551007,19.7180841 10.1282695,23.6516972 15.1941906,23.6516972 C20.2601116,23.6516972 24.382871,19.7145114 24.382871,14.8805618 C24.382871,10.0430394 20.2601116,6.10585356 15.1941906,6.10585356 Z" fill="#000000"></path>
                                    </g>
                                </g>
                                <g transform="translate(7.859680, 7.860081)" fill="#000000" id="Oval">
                                    <ellipse cx="7.33451051" cy="7.02048112" rx="6.57712316" ry="6.35237427"></ellipse>
                                </g>
                            </g>
                            <g transform="translate(13.933069, 8.217357)" fill="#FFFFFF" id="Path">
                                <path d="M5.08735654,2.71887335 C5.14809043,3.86215781 4.23708206,4.83752236 3.05455747,4.89825935 C1.8684603,4.95899633 0.860992223,4.07652364 0.800258331,2.93323919 C0.73952444,1.78995473 1.65053281,0.814590176 2.8330574,0.753853189 C4.01558198,0.693116202 5.02662264,1.57558889 5.08735654,2.71887335 Z"></path>
                            </g>
                            <path d="M26.1727345,21.1078893 L4.21921915,21.1078893 C4.21921915,21.1078893 6.34490534,26.8171661 15.1941906,26.8171661 C24.0470483,26.8171661 26.1727345,21.1078893 26.1727345,21.1078893 Z" id="Path" fill="#FFFFFF"></path>
                        </g>
                        <g transform="translate(93.926251, 69.624120)">
                            <g>
                                <g>
                                    <g transform="translate(2.500807, 2.500935)">
                                        <path d="M25.7976134,13.3442733 C25.7976134,20.3218812 20.1422164,25.9739938 13.1685366,25.9739938 C6.19128432,25.9739938 0.539459857,20.3183085 0.539459857,13.3442733 C0.539459857,6.36666532 6.1948569,0.714552786 13.1685366,0.714552786 C20.1422164,0.714552786 25.7976134,6.36666532 25.7976134,13.3442733 Z" id="Path" fill="#FFFFFF"></path>
                                        <path d="M13.1685366,26.5099084 C5.90905036,26.5099084 0.00357258184,20.6041296 0.00357258184,13.3442733 C0.00357258184,6.08441697 5.90905036,0.178638196 13.1685366,0.178638196 C20.4280229,0.178638196 26.3335007,6.08441697 26.3335007,13.3442733 C26.3335007,20.6041296 20.4280229,26.5099084 13.1685366,26.5099084 Z M13.1685366,1.25046738 C6.49852636,1.25046738 1.07534713,6.67749578 1.07534713,13.3442733 C1.07534713,20.0110508 6.50209894,25.4380792 13.1685366,25.4380792 C19.8349744,25.4380792 25.2617262,20.0110508 25.2617262,13.3442733 C25.2617262,6.67749578 19.8385469,1.25046738 13.1685366,1.25046738 Z" id="Shape" fill="#000000"></path>
                                    </g>
                                    <g id="Shape">
                                        <path d="M15.6693439,30.8865442 C7.37738149,30.8865442 0.628774403,24.1375931 0.628774403,15.845208 C0.628774403,7.55282295 7.37738149,0.803871884 15.6693439,0.803871884 C23.9613064,0.803871884 30.7099135,7.55282295 30.7099135,15.845208 C30.7099135,24.1375931 23.9613064,30.8865442 15.6693439,30.8865442 Z M15.6693439,5.62353043 C10.0353824,5.62353043 5.4481873,10.2073865 5.4481873,15.845208 C5.4481873,21.4794567 10.0318098,26.0668856 15.6693439,26.0668856 C21.3033055,26.0668856 25.8905006,21.4830295 25.8905006,15.845208 C25.8905006,10.2109593 21.3033055,5.62353043 15.6693439,5.62353043 Z" fill="#FFFFFF"></path>
                                        <path d="M15.6693439,31.4224588 C7.0808572,31.4224588 0.0928871278,24.4341325 0.0928871278,15.845208 C0.0928871278,7.25628354 7.0808572,0.267957295 15.6693439,0.267957295 C24.2578307,0.267957295 31.2458007,7.25628354 31.2458007,15.845208 C31.2458007,24.4341325 24.2578307,31.4224588 15.6693439,31.4224588 Z M15.6693439,1.33978647 C7.6703332,1.33978647 1.16466168,7.84578959 1.16466168,15.845208 C1.16466168,23.8446265 7.6703332,30.3506296 15.6693439,30.3506296 C23.6683547,30.3506296 30.1740262,23.8446265 30.1740262,15.845208 C30.1740262,7.84578959 23.6683547,1.33978647 15.6693439,1.33978647 Z M15.6693439,26.6028002 C9.73885809,26.6028002 4.91230003,21.7795689 4.91230003,15.845208 C4.91230003,9.91084714 9.73885809,5.08761584 15.6693439,5.08761584 C21.5998298,5.08761584 26.4263878,9.9144199 26.4263878,15.845208 C26.4263878,21.7759962 21.5998298,26.6028002 15.6693439,26.6028002 Z M15.6693439,6.15944501 C10.3283341,6.15944501 5.98407458,10.503926 5.98407458,15.845208 C5.98407458,21.1864901 10.3283341,25.530971 15.6693439,25.530971 C21.0103538,25.530971 25.3546133,21.1864901 25.3546133,15.845208 C25.3546133,10.503926 21.0103538,6.15944501 15.6693439,6.15944501 Z" fill="#000000"></path>
                                    </g>
                                </g>
                                <g transform="translate(8.216938, 8.217357)" fill="#000000" id="Path">
                                    <path d="M14.3010451,7.62785099 C14.3010451,11.411408 11.2357699,14.4768394 7.45240571,14.4768394 C3.66904155,14.4768394 0.60376633,11.411408 0.60376633,7.62785099 C0.60376633,3.84429399 3.66904155,0.778862537 7.45240571,0.778862537 C11.2321973,0.778862537 14.3010451,3.84429399 14.3010451,7.62785099 Z"></path>
                                </g>
                            </g>
                            <g transform="translate(15.004844, 9.646463)" fill="#FFFFFF" id="Path">
                                <path d="M5.06592104,2.85463838 C5.13022752,4.08724194 4.17992075,5.13763453 2.94738002,5.20194428 C1.71483928,5.26625403 0.664500222,4.31947159 0.600193749,3.08329527 C0.535887275,1.85069172 1.48619404,0.80029912 2.71873478,0.73598937 C3.95127551,0.675252383 5.00161457,1.62203482 5.06592104,2.85463838 Z"></path>
                            </g>
                            <path d="M26.8300896,22.6941965 L3.97985617,22.6941965 C3.97985617,22.6941965 6.19128432,28.4427736 15.4049729,28.4427736 C24.6186614,28.4427736 26.8300896,22.6941965 26.8300896,22.6941965 Z" id="Path" fill="#FFFFFF"></path>
                        </g>
                        <g transform="translate(113.575452, 82.843347)">
                            <path d="M34.0931485,17.5208343 C34.0931485,26.7707201 26.5942992,34.2699516 17.3448848,34.2699516 C8.09547044,34.2699516 0.596621167,26.7707201 0.596621167,17.5208343 C0.596621167,8.2709485 8.09547044,0.771717009 17.3448848,0.771717009 C26.5942992,0.771717009 34.0931485,8.2709485 34.0931485,17.5208343 Z" id="Path" fill="#FFFFFF"></path>
                            <path d="M17.3448848,34.8058662 C7.81323648,34.8058662 0.0607338912,27.0529685 0.0607338912,17.5208343 C0.0607338912,7.98870015 7.81323648,0.235802419 17.3448848,0.235802419 C26.8765332,0.235802419 34.6290357,7.98870015 34.6290357,17.5208343 C34.6290357,27.0529685 26.8765332,34.8058662 17.3448848,34.8058662 Z M17.3448848,1.3076316 C8.40628506,1.3076316 1.13250844,8.58177896 1.13250844,17.5208343 C1.13250844,26.4598897 8.40628506,33.734037 17.3448848,33.734037 C26.2834846,33.734037 33.5572612,26.4598897 33.5572612,17.5208343 C33.5572612,8.58177896 26.2870572,1.3076316 17.3448848,1.3076316 Z" id="Shape" fill="#000000"></path>
                        </g>
                        <g transform="translate(123.578681, 87.487940)" fill="#000000" id="Path">
                            <path d="M14.1367063,7.38847581 C14.1367063,11.1398779 7.34522826,14.1803 7.34522826,14.1803 C7.34522826,14.1803 0.553750185,11.1398779 0.553750185,7.38847581 C0.553750185,3.63707368 3.59401733,0.596651576 7.34522826,0.596651576 C11.0928666,0.596651576 14.1367063,3.63707368 14.1367063,7.38847581 Z"></path>
                        </g>
                        <g transform="translate(130.366586, 64.622251)" fill="#FFFFFF" id="Path">
                            <path d="M0.893145459,15.7273068 C0.946734187,15.1913922 1.00746808,14.8448341 1.07891971,14.4268207 C1.1610891,14.0338167 1.24683106,13.6372399 1.35400852,13.2513814 C1.45046823,12.8619501 1.56836343,12.4796644 1.70412154,12.1045242 C1.82558932,11.7258112 1.97206517,11.3542438 2.12925877,10.9862491 C2.7544606,9.51784311 3.52971085,8.08873754 4.55146926,6.82040634 C5.57680025,5.5663662 6.7271716,4.37306305 8.10618819,3.49059036 C8.7528255,2.99397617 9.49592252,2.64741807 10.2032937,2.26155957 C10.9321004,1.92214699 11.6930604,1.65776246 12.43973,1.3862324 C13.207835,1.20044868 13.9652224,0.971791789 14.7333275,0.843172287 C15.5050052,0.750280425 16.2659651,0.625233688 17.0412154,0.61808816 C18.5809981,0.51805077 20.1350712,0.714552786 21.6141201,1.05396536 C24.5615001,1.7828092 27.2945252,3.30123387 29.1379775,5.53063856 C26.5800089,4.25158908 23.879137,3.64064644 21.2711523,3.62635539 C19.9671599,3.59062775 18.684603,3.7442566 17.4377719,4.01221389 C16.8125701,4.11582405 16.2016586,4.33018988 15.5943197,4.50525532 C14.994126,4.7053301 14.429658,4.95542357 13.8473272,5.16978941 C11.610891,6.20946371 9.78887423,7.77076155 8.42057539,9.71077236 C7.73821226,10.6825641 7.18088949,11.7579661 6.71645385,12.8762412 C6.47709087,13.4300196 6.28417145,14.0123801 6.10554236,14.5911679 C6.00908265,14.8805618 5.94477618,15.1699556 5.86260679,15.4593495 C5.79472774,15.7273068 5.71970352,16.0702922 5.6839777,16.2346393 L5.64110672,16.4490051 C5.37673566,17.7494912 4.10489653,18.5926635 2.80447674,18.328279 C1.58979892,18.0746127 0.77882284,16.934901 0.893145459,15.7273068 Z"></path>
                        </g>
                        <g transform="translate(99.285124, 64.622251)" fill="#FFFFFF" id="Path">
                            <path d="M24.2078145,16.2310665 C24.1756613,16.0702922 24.1006371,15.7237341 24.0291854,15.4557768 C23.9470161,15.1663829 23.8827096,14.876989 23.7862499,14.5875951 C23.6076208,14.0088074 23.4182739,13.4300196 23.1753384,12.8726684 C22.7109027,11.7543933 22.15358,10.6789914 21.4712168,9.7071996 C20.102918,7.77076155 18.2809013,6.20589095 16.044465,5.16621664 C15.4657068,4.95542357 14.8976663,4.70175733 14.2974725,4.50168255 C13.6901336,4.32661712 13.0827947,4.11225128 12.4540203,4.00864113 C11.2071892,3.74068383 9.92463234,3.58705499 8.62063997,3.62278262 C6.01265523,3.64064644 3.31178336,4.25158908 0.753814768,5.5270658 C2.597267,3.29766111 5.32671952,1.77566367 8.27767212,1.0503926 C9.756721,0.710980022 11.3107941,0.514478006 12.8505769,0.614515396 C13.6293997,0.61808816 14.3867871,0.743134897 15.1584647,0.839599523 C15.9265698,0.968219025 16.6839572,1.19687592 17.4520623,1.38265964 C18.1951593,1.6541897 18.9561192,1.91857423 19.6884985,2.2579868 C20.3958697,2.64384531 21.1389667,2.99040341 21.785604,3.4870176 C23.1646206,4.36949029 24.314992,5.56279344 25.340323,6.81683358 C26.3620814,8.08516477 27.1373316,9.51427034 27.7625335,10.9826763 C27.9161545,11.350671 28.0662029,11.7222385 28.1876707,12.1009514 C28.3234288,12.4760916 28.441324,12.8583774 28.5377837,13.2478087 C28.6485337,13.6300944 28.7342757,14.0266712 28.8128725,14.423248 C28.8843241,14.8448341 28.945058,15.1913922 28.9986468,15.7237341 C29.1308323,17.0456567 28.1662352,18.2246688 26.8443799,18.3568611 C25.6082666,18.4819078 24.4971937,17.645881 24.2506855,16.4525779 L24.2078145,16.2310665 Z"></path>
                        </g>
                        <g transform="translate(120.363357, 28.537335)" fill="#000000" id="Path">
                            <path d="M11.0750037,4.7446305 C11.2643505,5.32341826 11.3215118,5.64853977 11.414399,6.07369868 C11.4965684,6.47384824 11.5644474,6.86327951 11.6251813,7.25271078 C11.7395039,8.02800055 11.8288185,8.79257203 11.8788346,9.55357075 C11.9895846,11.0719954 11.9967298,12.5725563 11.918133,14.0516805 C11.8181007,15.5308048 11.6823426,16.9920652 11.4215441,18.4247436 C11.1857537,19.8609947 10.8463585,21.2650909 10.4748099,22.6441778 C10.2854631,23.351585 9.55665641,23.7695984 8.84928521,23.5802419 C8.26338179,23.4230403 7.87754295,22.897844 7.8668252,22.322629 L7.8668252,22.2726103 C7.84538971,20.9292511 7.79537357,19.5966102 7.64175255,18.2854058 C7.51671218,16.9742014 7.27020404,15.6844337 7.0022604,14.423248 C6.70930869,13.1656351 6.35205051,11.9366043 5.9197681,10.761165 C5.70898577,10.1716589 5.46962279,9.60358944 5.21596948,9.0533838 C5.09092912,8.78185374 4.95874359,8.51032368 4.82655806,8.26023021 C4.70509028,8.03157331 2.44721856,3.64421921 0.775250259,1.46840598 C1.08963746,1.09326576 7.48098637,0.0357276393 9.22083372,1.35050477 C9.88890652,1.85426448 10.3497696,2.52951686 10.5927051,3.269079 L11.0750037,4.7446305 Z"></path>
                        </g>
                        <g transform="translate(108.573837, 29.609164)" fill="#000000" id="Path">
                            <path d="M11.5108587,3.71210172 C11.8359636,4.22657973 11.9681492,4.53026466 12.1610686,4.91969593 C12.3396977,5.28769062 12.4968913,5.64853977 12.6505123,6.01296169 C12.9506092,6.73823277 13.2221254,7.45993109 13.4543432,8.18520216 C13.9294966,9.63217155 14.2974725,11.0862865 14.5797065,12.5404014 C14.8405049,14.0016618 15.062005,15.4486312 15.1548922,16.9063189 C15.2763599,18.3568611 15.2835051,19.8002577 15.2549244,21.2293633 C15.2406341,21.9617799 14.6368678,22.5441404 13.9044885,22.5298493 C13.3007222,22.519131 12.7969881,22.1046904 12.6469397,21.5473393 L12.6326494,21.4973206 C12.2861089,20.1968345 11.9145604,18.9213578 11.4501248,17.6851815 C11.0106972,16.4418596 10.4605196,15.2485565 9.89605169,14.0909809 C9.31014827,12.940551 8.66351095,11.8329941 7.95971233,10.8004654 C7.61317189,10.2788418 7.24162338,9.7858004 6.86650229,9.31419556 C6.67715545,9.08196591 6.48780862,8.84973625 6.2948892,8.63894318 C6.11983269,8.44601393 2.86878321,4.73391221 0.721661531,3.02970381 C0.936016441,2.58668109 6.8843652,0.0178638196 8.88858361,0.875327163 C9.6566887,1.20402144 10.2676002,1.74708156 10.6820197,2.40447012 L11.5108587,3.71210172 Z"></path>
                        </g>
                        <g transform="translate(132.867394, 28.894611)" fill="#000000" id="Path">
                            <path d="M8.94574492,6.70250513 C8.93859976,7.27414736 8.89215619,7.58140506 8.84571263,7.98512738 C8.79926906,8.36741312 8.74210775,8.73183504 8.6742287,9.09625696 C8.54204317,9.82152804 8.39199473,10.5253625 8.20622048,11.2184787 C7.84538971,12.6011384 7.39881698,13.9337793 6.8843652,15.2271199 C6.34847792,16.5133149 5.78758258,17.767355 5.12308235,18.9606582 C4.4835902,20.1646796 3.75478351,21.3115368 3.00811391,22.4226664 C2.62584765,22.9943087 1.85416997,23.1479375 1.28255688,22.7656518 C0.810976077,22.4512485 0.625201821,21.8653152 0.789540586,21.3508372 L0.803830913,21.3043913 C1.18966975,20.1039426 1.54692794,18.9070667 1.80772641,17.6958997 C2.08996037,16.4918783 2.2614443,15.2735658 2.40434758,14.0695444 C2.52581536,12.8619501 2.5758315,11.6615015 2.54725085,10.4896349 C2.5365331,9.90370161 2.4972347,9.32491386 2.43650081,8.76041716 C2.40792016,8.48174157 2.37219434,8.20306598 2.32932336,7.93868145 C2.29002496,7.69930627 1.60766183,3.11902291 0.77882284,0.682397911 C1.17180684,0.443022727 7.17017175,1.43267834 8.31697052,3.1297412 C8.75639808,3.77998424 8.96360783,4.51954637 8.95646266,5.24839021 L8.94574492,6.70250513 Z"></path>
                        </g>
                        <g transform="translate(83.565764, 0.312500)">
                            <g transform="translate(0.000000, 18.578372)">
                                <path d="M19.5527404,2.04719373 L63.2847147,1.70420839 C63.2847147,1.70420839 75.8137592,1.07540194 79.6042685,8.33525825 C84.0235522,16.799136 77.728663,24.9271739 67.9683694,27.4209632 C58.2080759,29.9147524 41.2811831,28.5463838 33.0070836,22.7727973 C24.2578307,16.6705165 22.1071364,13.015579 16.48032,10.8326202 C11.6323265,8.94977364 6.98797007,7.08121811 0.685935713,8.94977364 C0.685935713,8.94977364 -0.97174226,2.74030993 8.97075299,1.04681983 C15.215626,-0.0214365836 19.5527404,2.04719373 19.5527404,2.04719373 Z" id="Path" fill="#FFFFFF"></path>
                                <path d="M56.9755351,29.1608992 C48.2298548,29.1608992 38.5017145,27.2601888 32.696269,23.2122473 C29.0379452,20.6612938 26.4871217,18.5033444 24.4400323,16.7705539 C21.564104,14.3339289 19.4848613,12.576129 16.2802554,11.3328072 L16.0623279,11.2470609 C11.3322296,9.41066019 6.86292971,7.67429692 0.832411568,9.46067889 C0.693080876,9.49997929 0.543032439,9.48568823 0.417992075,9.41423295 C0.292951711,9.34277768 0.200064583,9.22487647 0.160766183,9.08553867 C0.13575811,8.99621957 -0.403701748,6.88471609 1.00032291,4.69818457 C2.35790401,2.58310832 5.00875973,1.17543933 8.87429328,0.51805077 C14.7261823,-0.478750367 18.9061031,1.1790121 19.6634904,1.51127914 L63.2775695,1.1682938 C63.7813035,1.14328446 76.1710173,0.607369868 80.0758493,8.08516477 C81.897866,11.5721824 82.0657774,15.194965 80.5617204,18.5605086 C78.6075182,22.9335717 73.9488714,26.4384531 68.0969824,27.9354412 C64.9423926,28.7464586 61.0661413,29.1608992 56.9755351,29.1608992 Z M5.85546163,7.63142375 C9.7174226,7.63142375 13.0184882,8.914046 16.4517394,10.246687 L16.6696668,10.3324333 C20.0386115,11.6400649 22.1750155,13.4478834 25.1331132,15.9523909 C27.1659123,17.6708904 29.6917276,19.810976 33.310753,22.3333473 C41.3526348,27.9425867 58.1687775,29.3716923 67.8326113,26.8993396 C73.3701132,25.4845251 77.7643888,22.2047278 79.582833,18.1246314 C80.9475593,15.0699183 80.7903657,11.7686844 79.1255425,8.58177896 C75.5386704,1.70420839 63.4311905,2.23297746 63.3097227,2.24012298 L19.556313,2.58310832 C19.470571,2.58310832 19.3955468,2.5652445 19.3205226,2.52951686 C19.2597887,2.50093475 15.0298518,0.553778409 9.05649496,1.57201613 C5.51249377,2.17581323 3.1081462,3.41556232 1.91490386,5.25553574 C1.13965361,6.45241166 1.07534713,7.60998717 1.1217907,8.26737573 C2.80804932,7.82078024 4.37641275,7.63142375 5.85546163,7.63142375 Z" id="Shape" fill="#000000"></path>
                            </g>
                            <g transform="translate(43.942757, 1.429106)" id="Path">
                                <path d="M24.0220403,32.4764241 C24.0220403,32.4764241 21.0032086,32.447842 18.8775224,22.6834782 C16.4696023,11.6329194 17.6271188,7.28486565 13.8901982,3.16189608 C10.1532776,-0.957500733 0.560895348,1.0396743 0.560895348,1.0396743" fill="#FFFFFF"></path>
                                <path d="M24.0220403,33.0123387 C24.0220403,33.0123387 24.0184677,33.0123387 24.0184677,33.0123387 C23.6647821,33.0087659 20.5101923,32.6943627 18.3523529,22.7978066 C17.4985058,18.8856301 17.0876589,15.784471 16.7589814,13.2906818 C16.1623602,8.78899927 15.8015295,6.07012592 13.4936416,3.52274523 C10.0068017,-0.321548754 0.764532513,1.54700678 0.671645385,1.5648706 C0.382266257,1.62203482 0.0964597096,1.43982386 0.0392984002,1.15042999 C-0.021435491,0.861036107 0.164338764,0.578787757 0.453717893,0.51805077 C0.857419641,0.432304435 10.3926406,-1.49341532 14.2903273,2.80461968 C16.8232879,5.59852108 17.2019815,8.44244117 17.8236108,13.151344 C18.1522883,15.6236967 18.5595626,18.7034192 19.402692,22.5727225 C21.367612,31.5832331 24.0256129,31.9405095 24.0506209,31.9440823 C24.3471452,31.9476551 24.5722179,32.1870302 24.5722179,32.4835696 C24.5686453,32.7765363 24.3185646,33.0123387 24.0220403,33.0123387 Z" fill="#000000"></path>
                            </g>
                            <g transform="translate(18.577426, 0.000000)" id="Path">
                                <path d="M35.2578101,3.57633669 C35.2578101,3.57633669 34.311076,5.41631012 31.738817,5.28054509 C28.3591546,5.10190689 25.9655248,0.939636913 20.3279907,0.814590176 C15.3763922,0.707407258 9.78530165,1.31477713 6.46637312,6.31307386 C3.13672685,11.3328072 0.728806695,22.2297372 0.728806695,22.2297372" fill="#FFFFFF"></path>
                                <path d="M0.728806695,22.7656518 C0.689508294,22.7656518 0.650209894,22.762079 0.610911494,22.7513607 C0.321532365,22.687051 0.139330692,22.4012298 0.203637165,22.111836 C0.303669456,21.6616677 2.67229121,11.0577044 6.01980039,6.01653446 C9.52807576,0.728843842 15.5157229,0.171492669 20.3387084,0.278675587 C23.7040805,0.353703629 25.9190812,1.77209091 27.8768561,3.02613105 C29.2594452,3.9121765 30.4526876,4.67674798 31.7673977,4.7446305 C33.9323823,4.85895894 34.7505035,3.39055297 34.7826568,3.32624322 C34.9219875,3.06543145 35.2435198,2.96539406 35.5043183,3.10115909 C35.7651168,3.23692412 35.8687216,3.55847287 35.7329635,3.81928464 C35.68652,3.90860374 34.6004551,5.96651576 31.7102364,5.81288691 C30.1168649,5.72714058 28.748566,4.85181342 27.3016704,3.92646756 C25.4653633,2.75102823 23.3789755,1.41481452 20.3172729,1.35050477 C15.4907148,1.24689461 10.1139792,1.78638196 6.91294585,6.60961327 C3.67618671,11.486436 1.27541172,22.2368827 1.25040364,22.3440656 C1.19324233,22.5941591 0.97174226,22.7656518 0.728806695,22.7656518 Z" fill="#000000"></path>
                            </g>
                            <g transform="translate(25.722589, 3.215488)" fill="#000000" id="Path">
                                <path d="M0.703798622,10.2574052 C0.475153384,10.2574052 0.264371056,10.1109219 0.192919419,9.88226503 C0.103604873,9.60001668 0.260798474,9.29990451 0.543032439,9.21058541 C0.589476003,9.19629435 5.06949363,7.78147984 7.57387349,6.49885759 C7.945422,6.3095011 8.33126084,6.11299908 8.72781743,5.91649707 C11.0535682,4.75177603 14.5654161,2.99397617 14.3010451,1.77923644 C14.2831822,1.70420839 14.2474564,1.6148893 14.1045531,1.53271573 C13.2685689,1.05396536 10.7784794,1.58630718 9.40660798,2.03290268 C9.12437401,2.12579454 8.82427714,1.97216569 8.73139001,1.68991734 C8.63850288,1.40766899 8.7921239,1.10755682 9.07435786,1.01466496 C9.48520478,0.882472691 13.1149479,-0.267957295 14.6368678,0.603797104 C15.0155615,0.821735704 15.2620696,1.15042999 15.3513842,1.55415231 C15.7943843,3.58348222 12.4468751,5.2591085 9.21011597,6.87757056 C8.82070455,7.07407258 8.43486572,7.26700183 8.06688979,7.45278556 C5.48391312,8.77470821 1.05748422,10.1716589 0.868137386,10.2323959 C0.810976077,10.246687 0.757387349,10.2574052 0.703798622,10.2574052 Z"></path>
                            </g>
                            <g transform="translate(17.148393, 21.436584)">
                                <path d="M2.15426685,0.793153592 C2.15426685,0.793153592 15.8551182,7.79577089 31.6209218,7.79577089 C37.5764158,7.79577089 46.6686365,6.6560592 46.6686365,6.6560592 L48.8229034,10.9505214 C48.8229034,10.9505214 32.2139704,13.0655977 25.9655248,12.4689461 C14.5189726,11.3721076 0.860992223,5.37700971 0.860992223,5.37700971 L2.15426685,0.793153592 Z" id="Path" fill="#2DA6DE"></path>
                                <path d="M28.7307031,13.1120436 C27.6660737,13.1120436 26.7086218,13.0798887 25.9119361,13.0012879 C14.5118274,11.9080222 0.77882284,5.92721536 0.643064731,5.86647837 C0.396556584,5.75929545 0.27151622,5.4877654 0.342967856,5.23052639 L1.63981506,0.646670271 C1.68268605,0.493041422 1.79343608,0.364421921 1.93991194,0.30011217 C2.08638779,0.235802419 2.25429914,0.239375183 2.39720241,0.314403226 C2.53296052,0.38228574 16.1695054,7.2598563 31.6173493,7.2598563 C37.4728109,7.2598563 46.5078703,6.13443567 46.5971849,6.12371738 C46.818685,6.09513526 47.040185,6.21303647 47.1437899,6.41668402 L49.2980568,10.7111463 C49.3766536,10.8683479 49.373081,11.0505588 49.2909116,11.2041877 C49.2087422,11.3578165 49.0586938,11.4614267 48.8872099,11.4828633 C48.2941613,11.5578913 36.0009072,13.1120436 28.7307031,13.1120436 Z M1.50048437,5.06975202 C3.90125937,6.08084421 15.9087069,10.9683853 26.0119684,11.9366043 C31.3779863,12.4510823 44.6894262,10.9147938 47.997637,10.5146442 L46.3542493,7.23841972 C44.571531,7.45278556 36.8511816,8.33883101 31.6173493,8.33883101 C17.7307237,8.33883101 5.2909937,2.87964773 2.49366212,1.56129784 L1.50048437,5.06975202 Z" id="Shape" fill="#000000"></path>
                            </g>
                            <polygon id="Path" fill="#FFFFFF" points="61.7770851 25.6059991 47.3617174 27.6710566 33.0642449 26.0883222 20.170797 21.550912 26.4049524 13.8123054 45.2646119 5.97366129 48.6478469 6.05940762 57.4864143 10.9505214"></polygon>
                        </g>
                        <g transform="translate(74.634310, 31.395546)">
                            <path d="M0.62162924,5.8736239 C0.62162924,5.8736239 5.73399385,-1.35765029 14.7726259,1.25404014 C21.8677734,3.30480663 24.3614355,5.8736239 24.3614355,5.8736239 L10.5534067,18.1496408 L0.62162924,5.8736239 Z" id="Path" fill="#FFFFFF"></path>
                            <path d="M10.5534067,18.6855554 C10.5391164,18.6855554 10.5248261,18.6855554 10.5105358,18.6855554 C10.3640599,18.6748371 10.2283018,18.6033818 10.1389873,18.4890533 L0.207209747,6.21303647 C0.0571613094,6.02725275 0.0464435639,5.76286822 0.185774256,5.5663662 C0.239362983,5.49133816 5.62681639,-1.94715634 14.9226743,0.739562133 C22.0714106,2.80461968 24.6400969,5.39130077 24.7472744,5.50205645 C24.8508793,5.60566661 24.904468,5.74857716 24.8973228,5.89506048 C24.8901777,6.0415438 24.8258712,6.17730883 24.7186937,6.27734622 L10.9106649,18.5533631 C10.8142052,18.6391094 10.6855923,18.6855554 10.5534067,18.6855554 Z M1.30399237,5.86647837 L10.6177132,17.3779238 L23.5468869,5.88076943 C22.5787172,5.11262518 19.8921357,3.29051558 14.6225775,1.76851815 C7.04513138,-0.421586144 2.40077499,4.51954637 1.30399237,5.86647837 Z" id="Shape" fill="#000000"></path>
                        </g>
                        <g transform="translate(73.205277, 34.968310)" fill="#000000" id="Path">
                            <path d="M7.94899459,20.4219186 C7.94899459,20.4219186 -2.66871863,6.6167588 2.05066197,2.30443273 C7.76679291,-2.91894813 19,8.33868247 19,8.33868247 L11.8166123,15.0270451 L7.94899459,20.4219186 Z"></path>
                        </g>
                        <path d="M176.095634,51.7460095 C174.84523,51.7460095 173.698431,50.4276596 172.598076,47.7123591 C171.840689,45.8402308 171.386971,43.9966846 171.369108,43.9180838 C171.297656,43.6322626 171.476285,43.339296 171.762092,43.2714135 C172.047899,43.203531 172.34085,43.3785964 172.408729,43.6644175 C173.1161,46.5797929 174.727335,50.6741804 176.095634,50.6741804 C176.099206,50.6741804 176.099206,50.6741804 176.102779,50.6741804 C176.427884,50.6706076 176.656529,50.5634247 176.82444,50.3383405 C177.485368,49.4522951 177.135255,47.0085246 176.760134,45.6723109 C176.677965,45.3864897 176.845876,45.0899503 177.131682,45.0113495 C177.413916,44.9327487 177.714013,45.0970959 177.79261,45.382917 C177.906933,45.7866393 178.875102,49.3879853 177.68186,50.981438 C177.313884,51.4744795 176.770852,51.738864 176.113497,51.7460095 C176.109924,51.7460095 176.102779,51.7460095 176.095634,51.7460095 Z" id="Path" fill="#2DA6DE"></path>
                        <g transform="translate(123.221423, 102.064443)">
                            <g fill="#000000" id="Path">
                                <path d="M8.34287754,1.01434494 C12.901492,2.09331965 15.0093152,3.9011382 15.0093152,3.9011382 C15.0093152,3.9011382 13.6838874,12.257833 6.04570742,10.3464043 C-0.735052907,8.64934146 0.997649284,0.435557185 0.997649284,0.435557185 C0.997649284,0.435557185 5.93852996,0.442702713 8.34287754,1.01434494 Z"></path>
                            </g>
                            <g transform="translate(1.786291, 5.430975)">
                                <path d="M0.585903421,1.81139131 C1.31471012,2.85821114 2.42578307,3.74068383 4.13347718,4.16584274 C7.54886542,5.01973332 9.58880965,3.65136474 10.7963423,2.01146609 C7.50599444,0.714552786 3.75478351,0.30011217 0.585903421,1.81139131 Z" id="Path" fill="#FD0000"></path>
                                <path d="M6.11983269,4.9625691 C5.47676796,4.9625691 4.77296933,4.87682276 4.00486424,4.68389351 C2.34361368,4.2694529 1.04676648,3.40484402 0.150048437,2.11507625 C0.0607338912,1.98645674 0.0321532365,1.8221096 0.0714516367,1.67205352 C0.110750037,1.51842467 0.217927492,1.39337793 0.357258184,1.32549542 C3.32250111,-0.0893190982 7.09872011,-0.0214365836 10.9928343,1.51127914 C11.1464553,1.57201613 11.2643505,1.70063563 11.3107941,1.86141001 C11.3572377,2.02218438 11.3250844,2.19367705 11.2286247,2.32586932 C10.2854631,3.61206433 8.68137386,4.9625691 6.11983269,4.9625691 Z M1.43975048,2.02575715 C2.15426685,2.81891074 3.08313812,3.35125257 4.26209013,3.64421921 C6.6092764,4.23015249 8.50274477,3.76212042 9.90319685,2.25084128 C6.81291356,1.17543933 3.8548158,1.09683853 1.43975048,2.02575715 Z" id="Shape" fill="#000000"></path>
                            </g>
                        </g>
                    </g>
                    <path d="M116.094122,93.1900711 L100.403342,93.1900711 C100.106818,93.1900711 99.8674551,92.9506959 99.8674551,92.6541565 C99.8674551,92.3576171 100.106818,92.1182419 100.403342,92.1182419 L116.094122,92.1182419 C116.390646,92.1182419 116.630009,92.3576171 116.630009,92.6541565 C116.630009,92.9506959 116.390646,93.1900711 116.094122,93.1900711 Z" id="Path" fill="#000000"></path>
                    <path d="M159.779652,91.7038013 L144.767664,91.7038013 C144.471139,91.7038013 144.231776,91.4644261 144.231776,91.1678867 C144.231776,90.8713473 144.471139,90.6319721 144.767664,90.6319721 L159.779652,90.6319721 C160.076177,90.6319721 160.31554,90.8713473 160.31554,91.1678867 C160.31554,91.4644261 160.076177,91.7038013 159.779652,91.7038013 Z" id="Path" fill="#000000"></path>
                </g>
                <g id="arm-R" transform="translate(165.416418, 86.546256)">
                    <g id="Group" transform="translate(0.869297, 0.000000)">
                        <path d="M7.7462318,28.6213593 C7.7462318,28.6213593 9.82539467,45.8423358 23.1813159,45.8423358 C37.6814518,45.8423358 47.8950018,16.3988004 50.2644374,11.6446275 C52.6169967,6.92485532 51.6651722,0.650172705 54.547648,0.76713499 C58.2604388,0.918497948 54.6961596,11.565506 54.6961596,11.565506 C54.6961596,11.565506 57.2714863,7.32734318 59.3506492,8.84097276 C61.6863322,10.540366 58.0646735,13.8875514 58.0646735,13.8875514 C58.0646735,13.8875514 61.53107,10.1550784 63.114069,12.4736837 C64.697068,14.7957291 54.7974175,19.9420697 54.7974175,19.9420697 C54.7974175,19.9420697 41.3841168,53.7510503 23.9913794,53.7510503 C4.53298009,53.7510503 0.62104865,31.4456545 0.62104865,31.4456545" id="Path" fill="#FFFFFF"></path>
                        <path d="M23.9880041,54.2670604 C13.7035735,54.2670604 7.75635759,48.0680593 4.57685853,42.8701177 C1.15434042,37.2731283 0.158637427,31.7655807 0.118134254,31.5350962 C0.067505288,31.2564508 0.25314483,30.9881255 0.526541246,30.9365245 C0.803312927,30.8883636 1.06320829,31.0741272 1.11383725,31.3527727 C1.12396305,31.4078137 2.12304131,36.9222415 5.45105201,42.3506676 C9.8793989,49.5713687 16.1135122,53.2350403 23.9880041,53.2350403 C40.8406992,53.2350403 54.1932452,20.0831124 54.3248805,19.7494259 C54.3721342,19.6359037 54.4565158,19.5395818 54.5645243,19.4845407 C57.5111301,17.9537108 62.3411335,14.8954911 62.7529157,13.2167383 C62.8102952,12.9793736 62.7529157,12.8555312 62.6955362,12.7695295 C62.4660183,12.4324029 62.1926218,12.2603996 61.8382191,12.232879 C60.8593924,12.1571976 59.5194124,13.1960979 58.7836048,13.8841113 C58.59459,14.0836352 58.4528289,14.2177978 58.3988246,14.2693988 C58.1963088,14.4551625 57.8891597,14.4448423 57.6967697,14.2487584 C57.5077548,14.0492345 57.5043796,13.7327483 57.6900191,13.5332244 C57.7406481,13.4781834 57.8722834,13.3405807 58.0680487,13.151377 C58.7160995,12.4564834 59.6746746,11.2008589 59.6206704,10.2238798 C59.5970435,9.83859225 59.411404,9.52554614 59.0502507,9.26066096 C58.7667285,9.05425693 58.4595794,8.98889565 58.1153024,9.05769699 C56.8934567,9.3088219 55.5399757,11.1492579 55.1214429,11.8372713 C54.9864323,12.0608757 54.7062854,12.1434373 54.4733922,12.0333551 C54.2404989,11.9198329 54.1257399,11.6480676 54.2101215,11.4003828 C54.9121765,9.2985017 56.4816745,3.46070762 55.3070825,1.71659354 C55.1180677,1.43450803 54.8682981,1.30034541 54.5206459,1.28658514 C53.3494291,1.24530433 52.9950263,2.80709485 52.4954872,5.58666917 C52.1343339,7.58190816 51.7259269,9.84203232 50.7099723,11.8819922 C50.3960728,12.5115245 49.9302863,13.6089059 49.3429903,14.9986931 C45.3635535,24.3831965 36.0478238,46.3617859 23.1779406,46.3617859 C9.53174667,46.3617859 7.26356899,28.8656041 7.23994214,28.6901606 C7.20618949,28.4080751 7.40195483,28.1500701 7.68210177,28.1156694 C7.95887346,28.0812687 8.21201829,28.2807926 8.24577093,28.5628781 C8.26602252,28.7314414 10.429567,45.3297658 23.1779406,45.3297658 C35.386272,45.3297658 44.5163622,23.7880648 48.4147926,14.5893251 C49.0122144,13.1823376 49.4813761,12.0711959 49.8087768,11.414143 C50.7606013,9.5083458 51.152132,7.32390311 51.5031595,5.40090554 C52.0094491,2.59381068 52.4381077,0.182323563 54.5645243,0.258005042 C55.2294514,0.285525579 55.7762442,0.588251495 56.1475233,1.13866225 C56.8833309,2.22916356 56.9339599,4.3654453 56.2994102,7.48558627 C56.1711501,8.12199871 56.0260138,8.73089061 55.8842527,9.28130136 C56.4749239,8.7102502 57.1803542,8.20456032 57.9195371,8.05319737 C58.543961,7.92591488 59.1245065,8.0497573 59.6409219,8.42816469 C60.2518448,8.87193336 60.5927465,9.47394513 60.6332497,10.1722788 C60.6602518,10.6263676 60.5556186,11.0873367 60.3834801,11.5276653 C60.8830192,11.307501 61.4061852,11.1733383 61.9124749,11.2111791 C62.5672762,11.2627801 63.1241948,11.5999067 63.5258513,12.1847181 C63.7789961,12.5528053 63.8498767,13.000014 63.7351177,13.4713032 C63.1073185,16.0238331 56.5424292,19.6049431 55.1889482,20.3204771 C54.6691575,21.5933019 51.3850252,29.4125747 46.3322544,37.1389657 C38.8999222,48.5049478 31.3798331,54.2670604 23.9880041,54.2670604 Z" id="Path" fill="#000000"></path>
                    </g>
                    <g id="Group" transform="translate(58.591304, 13.348018)">
                        <path d="M0.427448746,0.477635881 C0.427448746,0.477635881 0.499395565,0.415160301 0.607315793,0.308347214 C0.495163399,0.411129619 0.427448746,0.477635881 0.427448746,0.477635881 Z" id="Path" fill="#FFFFFF"></path>
                        <path d="M0.427448746,0.779937071 C0.344921513,0.779937071 0.26239428,0.749706952 0.201027876,0.689246714 C0.0804111503,0.57235692 0.0804111503,0.386945524 0.19679571,0.27005573 C0.19679571,0.27005573 0.268742528,0.197503444 0.389359254,0.0906903571 C0.514208145,-0.022168754 0.713119938,-0.0181380714 0.833736663,0.0987517222 C0.954353389,0.215641516 0.956469472,0.403068254 0.835852746,0.521973389 C0.719468187,0.6348325 0.641173119,0.703354103 0.641173119,0.703354103 C0.581922798,0.753737634 0.503627731,0.779937071 0.427448746,0.779937071 Z" id="Path" fill="#000000"></path>
                    </g>
                    <g id="Group" transform="translate(42.606748, 0.000000)">
                        <path d="M21.8584598,12.5141662 C20.5532763,10.5889098 17.9698203,12.8143405 17.1120322,13.6424078 C16.9404746,13.8218224 16.8261028,13.9322313 16.8261028,13.9322313 C16.8261028,13.9322313 16.9337468,13.8149218 17.1120322,13.6424078 C17.9159983,12.7970891 20.0251479,10.2749343 18.1077392,8.87067031 C16.0355922,7.35254704 13.4689555,11.6032922 13.4689555,11.6032922 C13.4689555,11.6032922 17.0212076,0.924675085 13.320945,0.772862758 C10.4448319,0.655553232 11.3968085,6.94886426 9.05218765,11.6826487 C7.91856177,13.9736347 4.97517114,21.9782847 0.622316877,29.6827603 C2.09569413,31.7322267 3.96937251,33.3952618 6.09870539,34.7581224 C10.7778555,27.0777988 13.5698718,20.0081747 13.5698718,20.0081747 C13.5698718,20.0081747 23.4394811,14.839655 21.8584598,12.5141662 Z" id="Path" fill="#FFFFFF"></path>
                        <path d="M6.09870539,35.2722142 C6.00788077,35.2722142 5.91369227,35.2480622 5.83295927,35.1928577 C3.52870489,33.7195881 1.641571,31.9668458 0.218651876,29.9863849 C0.10091625,29.8207715 0.0874607503,29.5999536 0.188377001,29.420539 C3.30332526,23.9069913 5.65803777,18.3209877 7.2155119,14.6257376 C7.81091777,13.2180233 8.2784964,12.1035828 8.60479228,11.4480296 C9.55340503,9.53657439 9.94361453,7.34564648 10.2934575,5.41693986 C10.7980388,2.60151125 11.2252509,0.182864849 13.3444922,0.258771013 C14.0071755,0.286373254 14.5521233,0.589997909 14.9221495,1.14204274 C16.0456838,2.82232918 15.3359062,6.69699381 14.6732228,9.29505477 C15.2619009,8.72920883 15.958223,8.22546792 16.6915478,8.07710587 C17.3138647,7.94944551 17.8924512,8.07710587 18.4071241,8.45318641 C19.0025299,8.88792171 19.3321897,9.45376766 19.3927394,10.1300226 C19.4331059,10.6096115 19.3321897,11.096101 19.1471766,11.5653391 C19.6685772,11.3307201 20.2135249,11.1961591 20.7349256,11.2513636 C21.3572424,11.316919 21.8920986,11.6550464 22.2789442,12.2243426 L22.2789442,12.2243426 C22.5312348,12.5935226 22.6018762,13.042059 22.4875044,13.5147474 C21.8618237,16.0748553 15.3190868,19.666597 13.9701729,20.3842552 C13.4992304,21.5366488 10.7711278,28.07838 6.53264527,35.0341448 C6.43172902,35.1859572 6.26689914,35.2722142 6.09870539,35.2722142 Z M1.22781438,29.6413569 C2.45899263,31.2836903 4.04337776,32.7604102 5.94060327,34.0335636 C10.3809183,26.649964 13.0753822,19.8770641 13.1022932,19.8080584 C13.1493874,19.6941992 13.2334843,19.5975914 13.3411283,19.5423869 C16.2777912,18.0070122 21.0914963,14.9397131 21.5018891,13.2559764 C21.5590749,13.0179071 21.5018891,12.893697 21.4447032,12.80744 L21.4447032,12.80744 C21.2226874,12.4796634 20.9603052,12.3071494 20.6239177,12.2726466 C19.8569542,12.1967404 18.6695063,12.8419428 17.4585113,14.015038 C17.2903176,14.1944526 17.1658542,14.3083119 17.1658542,14.3083119 C16.9640217,14.494627 16.6545452,14.4877264 16.4661682,14.2876102 C16.2744273,14.0874939 16.2744273,13.7700682 16.4594404,13.5699519 C16.4594404,13.5699519 16.5738122,13.4457418 16.7655531,13.262877 C17.8386292,12.1346354 18.4474906,10.9891423 18.3802131,10.2162796 C18.3499382,9.8470996 18.1615612,9.54692523 17.8150821,9.29160449 C17.5325166,9.08458768 17.2264039,9.01558208 16.8832887,9.08803796 C15.6655659,9.33990842 14.316652,11.1858083 13.8995315,11.8758643 C13.7649765,12.1001326 13.4891388,12.1829393 13.2536675,12.0725303 C13.0215602,11.9586711 12.9071884,11.6860989 12.9912853,11.4376788 C13.6909713,9.32955758 15.2551732,3.47443213 14.0845447,1.72514008 C13.8961677,1.44221711 13.6472409,1.30765618 13.3007618,1.29385506 C12.1334972,1.2524517 11.7802903,2.8188789 11.2824368,5.60670527 C10.9225022,7.60786777 10.5154733,9.87470184 9.5029469,11.920718 C9.19010653,12.548669 8.72925565,13.6493083 8.14057752,15.0432215 C6.59992277,18.6901677 4.28894064,24.1761131 1.22781438,29.6413569 Z" id="Shape" fill="#000000"></path>
                    </g>
                </g>
                <g id="arm-L" transform="translate(69.540051, 112.497287)">
                    <g id="Group">
                        <path d="M0.810976077,4.86253171 C0.810976077,4.86253171 15.3978277,24.5270244 30.491986,27.8068217 C44.8680553,30.9294173 61.1518833,20.8542231 61.1518833,20.8542231 C61.1518833,20.8542231 69.8975636,17.8102282 68.0362485,15.1092187 C67.1824014,13.8658968 63.7027067,15.5200865 63.7027067,15.5200865 C63.7027067,15.5200865 68.5828535,13.6551037 66.8001352,11.1934694 C65.3532395,9.19629435 61.5055689,12.6190022 61.5055689,12.6190022 C61.5055689,12.6190022 65.8426832,10.0251756 63.5526583,7.62785099 C61.2626333,5.23052639 56.0716719,13.9016245 56.0716719,13.9016245 C56.0716719,13.9016245 50.6484927,23.1765196 32.2496962,21.1257531 C20.6316601,19.8324126 7.57387349,4.41950898 5.05877588,0.825308468" id="Path" fill="#FFFFFF"></path>
                        <path d="M36.3974638,28.9465334 C34.3896728,28.9465334 32.3675914,28.7607496 30.3740908,28.3248724 C22.4536768,26.6028002 14.711892,20.3933365 9.61381772,15.4843589 C4.11204169,10.1895227 0.410846911,5.22338087 0.375121093,5.17693493 C0.200064583,4.93755975 0.250080729,4.60529271 0.48587113,4.42665451 C0.721661531,4.25158908 1.05748422,4.30160777 1.23611332,4.53741019 C1.27183913,4.58742889 4.93016293,9.489261 10.3712051,14.7233602 C15.3656745,19.5287276 22.9324028,25.6095718 30.602736,27.2744798 C37.9050933,28.860787 45.7397653,26.9064852 51.0271864,24.9879109 C56.7754705,22.9014168 60.8267783,20.4147731 60.8660768,20.3897637 C60.89823,20.3683272 60.9339558,20.3504633 60.9732542,20.3397451 C63.3168679,19.5251549 67.2181273,17.6708904 67.7111435,16.1667568 C67.8004581,15.891654 67.7647323,15.6558515 67.5932483,15.4057581 C67.2609982,14.9234349 65.7640864,15.2521292 64.5351183,15.7380251 C64.2135859,15.891654 63.9742229,15.9845458 63.8956261,16.0167007 C63.6276825,16.1203109 63.3240131,15.9916913 63.213263,15.7273068 C63.102513,15.4629223 63.2168356,15.1556646 63.4740615,15.0341906 C63.5955293,14.9770264 63.8170293,14.876989 64.0956907,14.7626606 C65.0031265,14.3232106 66.3392721,13.5086204 66.6107883,12.5975656 C66.7179658,12.2331437 66.6429416,11.8865856 66.3678528,11.5078726 C66.1963689,11.2684974 65.9784414,11.1434507 65.6819171,11.1112958 C64.93882,11.0291223 63.9277794,11.5400275 63.102513,12.0830876 C62.4487305,12.6761664 61.8342464,13.0477339 61.7842303,13.0798887 C61.5484399,13.2227993 61.2411978,13.1620623 61.0768591,12.9369782 C60.9125203,12.7154668 60.9446736,12.4046364 61.1518833,12.2188526 C61.2662059,12.1152425 61.7735125,11.6757925 62.4630208,11.2184787 C63.0382065,10.6825641 63.5848115,10.0001662 63.6741261,9.32491386 C63.7384325,8.85330902 63.5705212,8.42100458 63.170392,7.99584567 C62.9774726,7.79577089 62.7702629,7.71717009 62.4987466,7.74932496 C60.8482138,7.93510869 57.9651403,11.7865482 56.5361076,14.1731545 C56.3324704,14.5197126 51.798864,21.9582071 37.4263673,21.9582071 C35.8079877,21.9582071 34.0681404,21.8653152 32.1961075,21.6545222 C20.41016,20.3397451 7.25234113,4.88396829 4.62649348,1.12542064 C4.45858213,0.882472691 4.51574344,0.550205645 4.75867901,0.378712977 C5.00161457,0.210793072 5.33386468,0.267957295 5.50534861,0.510905242 C8.07760753,4.18727933 20.9281844,19.3179346 32.3140027,20.5862658 C50.1018877,22.5691497 55.5607927,13.712268 55.6143815,13.6229489 C56.0216558,12.940551 59.6621167,6.98475348 62.3808514,6.68106855 C62.9846178,6.61318603 63.5240776,6.81326081 63.9456423,7.25271078 C64.5815619,7.91724487 64.8459329,8.66395253 64.7387555,9.46425165 C64.7066022,9.71077236 64.6351506,9.95014754 64.5422635,10.1823772 C64.9709733,10.0573305 65.3996831,9.99302071 65.8033848,10.0394666 C66.3964334,10.1037764 66.8930223,10.3931703 67.2431353,10.8719206 C67.7111435,11.5150181 67.8504742,12.2152799 67.6468371,12.8976778 C67.5146515,13.3407005 67.2502805,13.7444228 66.9180304,14.1016992 C67.5646677,14.1124175 68.1469985,14.2946285 68.4899664,14.7948154 C68.8507972,15.316439 68.9365391,15.905945 68.7436197,16.4990238 C67.9433614,18.9392216 62.2843917,21.0185702 61.3948189,21.3329734 C60.3587701,21.9653526 48.6585646,28.9465334 36.3974638,28.9465334 Z" id="Path" fill="#000000"></path>
                    </g>
                    <g id="Group" transform="translate(41.084691, 6.430975)">
                        <path d="M21.6784266,5.23409916 C21.0353619,5.82003244 20.4208778,6.18802713 20.4208778,6.18802713 C20.4208778,6.18802713 20.9460473,5.71999505 21.6784266,5.23409916 C22.7466286,4.26230737 23.8934273,2.69029124 22.4679672,1.19687592 C20.1779422,-1.20044868 14.9869808,7.47064938 14.9869808,7.47064938 C14.9869808,7.47064938 11.5465845,13.333555 0.878855132,14.7019236 C1.44332306,16.874164 1.8291619,19.0785594 1.73627477,21.3651283 C11.7359313,19.5716008 20.0636196,14.423248 20.0636196,14.423248 C20.0636196,14.423248 28.8092999,11.3792531 26.9515574,8.67824359 C26.2906297,7.71717009 24.0684838,8.48531433 23.0895964,8.88546389 C22.8037899,9.01765616 22.6180156,9.08911144 22.6180156,9.08911144 C22.6180156,9.08911144 22.8037899,9.0033651 23.0895964,8.88546389 C24.2685484,8.33883101 27.151622,6.74895106 25.7118715,4.76606708 C24.8008631,3.50130865 22.9324028,4.3980724 21.6784266,5.23409916 Z" id="Path" fill="#FFFFFF"></path>
                        <path d="M1.73984735,21.9010429 C1.61123441,21.9010429 1.48619404,21.854597 1.38616175,21.7688506 C1.26469397,21.6616677 1.19681492,21.5044661 1.20396008,21.3436917 C1.28255688,19.3929626 1.02175841,17.3850693 0.360830765,14.8376886 C0.321532365,14.6876325 0.35011302,14.5304309 0.435854984,14.4018114 C0.521596948,14.2731919 0.657355058,14.1910183 0.810976077,14.1695817 C11.0535682,12.8548046 14.4903919,7.25271078 14.5261177,7.19554655 C14.9333921,6.51314864 18.573853,0.557351173 21.2925877,0.253666239 C21.8963541,0.185783724 22.4358139,0.385858504 22.8573786,0.825308468 C23.4218465,1.41838728 23.6969353,2.07577584 23.6719272,2.7831831 C23.6612095,3.10473185 23.5897579,3.42985337 23.4539998,3.75854765 C24.9866374,3.31195216 25.776178,3.93004032 26.151299,4.44809109 C26.6050169,5.07689754 26.7479202,5.73071334 26.5764363,6.3988202 C26.4549685,6.87042504 26.1763071,7.29915671 25.8226215,7.67786968 C26.4871217,7.68501521 27.0551622,7.87794446 27.3981301,8.37098589 C27.7589609,8.89260942 27.8447028,9.48211547 27.6517834,10.0716215 C26.8515251,12.5118193 21.1854103,14.5947407 20.3029826,14.9055711 C19.5777485,15.3414483 11.4179715,20.1718251 1.83987965,21.8903246 C1.80058125,21.8974701 1.77200059,21.9010429 1.73984735,21.9010429 Z M1.54692794,15.1520918 C2.05066197,17.2350132 2.29359754,19.0321135 2.29002496,20.718458 C11.7859475,18.8641935 19.7027888,14.0159529 19.7849582,13.9659342 C19.8171114,13.9444976 19.8528373,13.9266338 19.8921357,13.9159155 C22.2357494,13.1013253 26.1370087,11.2470609 26.630025,9.74292724 C26.7193396,9.46782441 26.6836137,9.23202199 26.5121298,8.98192852 C26.2227507,8.56034238 24.9008954,8.72468952 23.2968062,9.38207808 C23.0145722,9.51427034 22.8145076,9.58929839 22.8145076,9.58929839 C22.546564,9.69290854 22.2428945,9.56428904 22.1285719,9.29990451 C22.0142493,9.03551998 22.1321445,8.72826228 22.392943,8.60321554 C22.392943,8.60321554 22.589435,8.51032368 22.8895318,8.38884971 C24.3471452,7.71359732 25.3438955,6.86327951 25.536815,6.1308629 C25.6261295,5.7843048 25.5439601,5.44131946 25.2831617,5.08047031 C24.6115163,4.15512445 22.9609835,5.03402438 22.0106767,5.66283083 C21.3461765,6.26305517 20.7245472,6.63819538 20.6959666,6.65248644 C20.4601762,6.79539699 20.1529341,6.73108724 19.9885954,6.50957588 C19.8242566,6.28806452 19.8564098,5.97366129 20.0636196,5.79145033 C20.0850551,5.77001375 20.6102246,5.3091272 21.3461765,4.81251301 C21.9070718,4.29446224 22.5679995,3.526318 22.5965801,2.75102823 C22.6108704,2.33658761 22.4429591,1.95072911 22.0785558,1.56844337 C21.8856363,1.36836859 21.6784266,1.28976778 21.4069104,1.32192265 C19.7563776,1.50770638 16.873304,5.35914589 15.4442713,7.7457522 C15.3049406,7.98512738 11.8824072,13.6300944 1.54692794,15.1520918 Z" id="Shape" fill="#000000"></path>
                    </g>
                </g>
                <g id="Group" transform="translate(2.000000, 13.011765)">
                    <path d="M76.5935384,31.1691417 C74.9079475,25.5185747 72.1562563,20.3998677 67.9891011,16.1271395 C44.5096843,-7.93149712 22.9967903,0.563985844 12.8328213,8.82031026 C2.66885225,17.0766347 -4.332833,41.0353245 4.44808708,55.6525525 C12.3609999,68.8276902 30.1893651,73.9392581 38.1563033,81.6208881" id="Path" fill="#FFFFFF"></path>
                    <path d="M37.7219568,82.3358623 C37.6319146,82.3358623 37.5418723,82.3037365 37.4698385,82.2359154 C34.5164528,79.38743 30.5603392,76.5021811 25.9069558,73.8250331 C18.0444666,69.2952987 9.13028401,64.1587441 4.13474006,55.8417376 C0.111652388,49.1452981 -0.965252905,39.646777 1.1813543,29.7805943 C3.12626687,20.8246419 7.50232015,12.6896815 12.6023131,8.54902593 C16.4417146,5.42925613 24.5131018,0.171337472 35.4118155,0.00356953066 C46.7499355,-0.178476533 57.7927168,5.17224993 68.2484228,15.8844114 C72.2282901,19.9608154 75.1528624,25.0723833 76.9393006,31.0727644 C76.9969276,31.2619495 76.8852752,31.4618432 76.6943857,31.5153862 C76.5034961,31.5724987 76.3018015,31.4618432 76.2477761,31.2726581 C74.4937531,25.3829325 71.6268079,20.3713115 67.7297794,16.3805762 C57.4181411,5.81476544 46.5446391,0.53899913 35.4226206,0.717475662 C24.7436099,0.881674073 16.8270954,6.04321541 13.0597277,9.10230318 C8.08219223,13.1465814 3.79978289,21.128052 1.88728553,29.9305146 C-0.219703087,39.6217903 0.828388687,48.9311263 4.75783242,55.474076 C9.65973243,63.6340231 18.4838728,68.7206042 26.2707265,73.2075043 C30.9601268,75.909639 34.9558589,78.8163051 37.9704734,81.7254726 C38.114541,81.8611147 38.114541,82.0895647 37.9776768,82.2287764 C37.9092447,82.2965975 37.8156008,82.3358623 37.7219568,82.3358623 Z" id="Path" fill="#000000"></path>
                </g>
                <g id="Group" transform="translate(7.951400, 20.141176)" fill="#000000">
                    <path d="M28.0083188,69.0551018 L24.792589,62.6285702 L31.0793587,65.8560069 L30.6127343,58.7811537 L36.6354452,63.7657899 L36.7114073,55.8973628 L42.3760111,61.4771794 L44.1520778,54.1543344 L48.7893844,60.2088783 L52.0449038,52.492789 L54.8410333,58.4410506 L57.5684351,51.9365787 L60.6937337,58.9724617 L65.4359404,50.4202857 L66.0906615,59.638497 L71.0173475,54.2641594 C73.1913111,37.4928249 71.8529309,20.9269693 61.0482236,9.98698604 C60.0353954,8.95959124 59.0261843,8.01367947 58.0205906,7.10319511 C58.7512738,17.6463914 57.4599178,28.2427289 52.3813075,37.832928 C50.3447992,21.6992868 39.2615642,7.63460622 25.6932827,0.421586144 C29.1441333,15.5880591 32.804784,29.5783421 32.4394424,45.2939399 C25.519655,35.5939158 16.9721079,28.0407927 11.4702801,17.3736004 C5.9214281,28.8591658 1.42519406,40.5289536 0.712597029,53.8390305 C6.01909368,59.6951809 13.3476296,63.7339053 19.8803719,67.4608685 L19.377575,66.0898278 L28.0083188,69.0551018 Z" id="Path"></path>
                </g>
            </g>
        </g>
    </g>
</svg>